<svg width="112" height="23" viewBox="0 0 112 23" fill="none" xmlns="http://www.w3.org/2000/svg">
<path d="M8.458 14.768C7.626 14.768 6.922 14.7467 6.346 14.704C5.79133 14.64 5.05533 14.544 4.138 14.416L4.106 17.776C4.08467 18.352 4.074 19.1733 4.074 20.24C4.074 20.7947 3.914 21.232 3.594 21.552C3.29533 21.8507 2.954 22 2.57 22C1.866 22 1.34333 21.9147 1.002 21.744C0.660667 21.552 0.49 21.2213 0.49 20.752C0.49 20.1333 0.543333 19.2587 0.65 18.128C0.884667 15.696 1.002 13.2 1.002 10.64C1.002 8.25067 0.927333 6 0.778 3.888C0.799333 3.58933 0.948667 3.248 1.226 2.864C1.52467 2.48 1.898 2.26667 2.346 2.224C2.83667 2.224 3.61533 2.13867 4.682 1.968C5.79133 1.79733 6.634 1.712 7.21 1.712C8.95933 1.712 10.314 1.88267 11.274 2.224C12.2553 2.56533 13.2367 3.13067 14.218 3.92C15.2847 5.584 15.818 6.75733 15.818 7.44C15.818 8.86933 15.53 10.1387 14.954 11.248C14.378 12.3573 13.5353 13.2213 12.426 13.84C11.3167 14.4587 9.994 14.768 8.458 14.768ZM7.722 4.432C7.03933 4.432 6.442 4.47467 5.93 4.56C5.43933 4.624 4.842 4.74133 4.138 4.912C4.22333 6.87467 4.266 8.304 4.266 9.2C4.266 10.1173 4.234 10.8853 4.17 11.504C5.08733 11.696 5.81267 11.824 6.346 11.888C6.87933 11.9307 7.47667 11.952 8.138 11.952C9.71667 11.952 10.826 11.5467 11.466 10.736C12.1273 9.904 12.458 8.944 12.458 7.856C12.458 7.536 12.362 7.14133 12.17 6.672C11.978 6.20267 11.8073 5.89333 11.658 5.744C11.082 5.232 10.5167 4.89067 9.962 4.72C9.42867 4.528 8.682 4.432 7.722 4.432ZM22.9633 20.72C22.9633 21.0827 22.8246 21.4027 22.5473 21.68C22.2699 21.9573 21.9286 22.096 21.5233 22.096C20.8833 22.096 20.4139 21.9787 20.1153 21.744C19.8166 21.488 19.6673 21.0293 19.6673 20.368C19.6673 19.5787 19.6459 18.544 19.6033 17.264C19.5606 16.1973 19.5393 15.3013 19.5393 14.576C19.5393 14.2347 19.5606 13.7867 19.6033 13.232C19.6459 12.72 19.6673 12.336 19.6673 12.08C19.6033 11.6747 19.4433 11.344 19.1873 11.088C18.9313 10.8107 18.6006 10.672 18.1953 10.672C18.0033 10.672 17.8433 10.5867 17.7153 10.416C17.5873 10.224 17.5233 10.032 17.5233 9.84C17.5233 9.34933 17.7153 8.976 18.0993 8.72C18.5046 8.464 18.9846 8.336 19.5393 8.336C20.6913 8.336 21.4913 9.01867 21.9393 10.384C22.4939 9.744 23.1233 9.232 23.8273 8.848C24.5526 8.44267 25.2459 8.24 25.9073 8.24C26.6966 8.24 27.4113 8.45333 28.0513 8.88C28.7126 9.30667 29.0433 9.88267 29.0433 10.608C29.0433 11.0133 28.8619 11.4293 28.4993 11.856C28.1579 12.2827 27.8059 12.496 27.4433 12.496C27.2513 12.496 27.0806 12.4533 26.9313 12.368C26.8033 12.2613 26.6433 12.112 26.4513 11.92C26.2379 11.7067 26.0566 11.5573 25.9073 11.472C25.7579 11.3653 25.5873 11.312 25.3953 11.312C25.0539 11.312 24.7339 11.3653 24.4353 11.472C24.1366 11.5787 23.9339 11.7067 23.8273 11.856C23.4859 12.3893 23.2299 12.8693 23.0593 13.296C22.9099 13.7227 22.8353 14.1813 22.8353 14.672C22.8353 15.0347 22.8246 15.3227 22.8033 15.536L22.7713 17.36C22.7713 17.6373 22.7819 17.9467 22.8033 18.288C22.8246 18.6293 22.8459 18.8853 22.8673 19.056C22.9313 19.632 22.9633 20.1867 22.9633 20.72ZM32.578 1.456C33.3247 1.52 33.9753 1.72267 34.53 2.064C35.0847 2.384 35.362 2.87467 35.362 3.536C35.362 4.02667 35.1273 4.42133 34.658 4.72C34.21 4.99733 33.666 5.136 33.026 5.136C32.4073 5.136 31.9807 4.976 31.746 4.656C31.5113 4.336 31.394 4.00533 31.394 3.664C31.394 3.024 31.458 2.49067 31.586 2.064C31.7353 1.63733 32.066 1.43467 32.578 1.456ZM35.138 15.632V16.56C35.138 17.392 35.1593 18.1813 35.202 18.928C35.266 19.6533 35.3407 20.3893 35.426 21.136C35.4047 21.3493 35.2447 21.5733 34.946 21.808C34.6473 22.0213 34.3807 22.128 34.146 22.128C33.7407 22.128 33.3247 22.0533 32.898 21.904C32.4927 21.7333 32.2473 21.5307 32.162 21.296C32.034 20.6133 31.97 20.0053 31.97 19.472C31.97 17.7227 31.9167 15.76 31.81 13.584C31.7247 11.664 31.682 10.32 31.682 9.552C31.682 9.168 31.874 8.83733 32.258 8.56C32.642 8.28267 33.0473 8.144 33.474 8.144C34.0927 8.144 34.5193 8.28267 34.754 8.56C35.01 8.83733 35.138 9.27467 35.138 9.872V15.632ZM38.8775 10.736C38.7068 10.608 38.5682 10.48 38.4615 10.352C38.3548 10.2027 38.3015 9.94667 38.3015 9.584C38.3015 9.17867 38.4402 8.86933 38.7175 8.656C39.0162 8.42133 39.3575 8.304 39.7415 8.304C40.4882 8.304 41.1282 8.496 41.6615 8.88C42.2162 9.264 42.6215 9.79733 42.8775 10.48C43.3468 9.60533 43.9442 9.008 44.6695 8.688C45.3948 8.34667 46.3975 8.176 47.6775 8.176C48.1895 8.176 48.7122 8.336 49.2455 8.656C49.8002 8.95467 50.3015 9.328 50.7495 9.776C51.1122 10.2453 51.4215 10.832 51.6775 11.536C51.9335 12.2187 52.0615 12.8373 52.0615 13.392C52.0615 13.712 52.0402 14.2347 51.9975 14.96C51.9548 15.728 51.9335 16.336 51.9335 16.784C51.9335 18.2773 52.2215 19.1947 52.7975 19.536C52.8828 19.5787 53.0428 19.632 53.2775 19.696C53.5122 19.76 53.6828 19.824 53.7895 19.888C53.9175 19.952 53.9815 20.048 53.9815 20.176C54.0028 20.688 53.8108 21.1147 53.4055 21.456C53.0215 21.776 52.5522 21.936 51.9975 21.936C51.1655 21.936 50.5148 21.712 50.0455 21.264C49.5762 20.816 49.2455 20.1333 49.0535 19.216C48.9468 18.8747 48.8935 18.3733 48.8935 17.712C48.8935 17.3493 48.9148 16.7627 48.9575 15.952C49.0215 15.312 49.0535 14.6293 49.0535 13.904C49.0535 13.1573 48.8402 12.5067 48.4135 11.952C47.9868 11.376 47.4002 11.088 46.6535 11.088C46.2055 11.088 45.7362 11.2267 45.2455 11.504C44.7548 11.76 44.4135 12.08 44.2215 12.464C43.9015 13.1253 43.6882 13.7973 43.5815 14.48C43.3255 15.8027 43.1975 17.072 43.1975 18.288C43.1975 18.5867 43.2188 19.1627 43.2615 20.016C43.2615 20.08 43.2615 20.24 43.2615 20.496C43.2615 20.7307 43.2295 20.9547 43.1655 21.168C43.1228 21.3813 43.0375 21.5733 42.9095 21.744C42.8242 21.8293 42.6642 21.9147 42.4295 22C42.1948 22.0853 41.9922 22.128 41.8215 22.128C41.5228 22.128 41.1495 22 40.7015 21.744C40.2535 21.488 39.9868 21.2 39.9015 20.88L39.8695 20.432C39.8695 20.2613 39.8908 20.0053 39.9335 19.664C40.1895 18.1707 40.3175 16.8693 40.3175 15.76C40.3175 15.2693 40.3068 14.896 40.2855 14.64L40.2535 13.168C40.2535 12.72 40.1255 12.2933 39.8695 11.888C39.6135 11.4613 39.2828 11.0773 38.8775 10.736ZM54.852 3.344C54.852 2.42667 55.524 1.968 56.868 1.968C57.444 1.968 58.5427 1.98933 60.164 2.032C61.956 2.11733 63.3107 2.16 64.228 2.16C64.9747 2.16 65.8813 2.11733 66.948 2.032C67.6733 1.98933 68.132 1.968 68.324 1.968C69.4973 2.01067 70.4893 2.224 71.3 2.608C71.5347 2.71467 71.7267 2.84267 71.876 2.992C72.0253 3.14133 72.1 3.38667 72.1 3.728C72.1 4.19733 71.9507 4.60267 71.652 4.944C71.3533 5.264 70.9907 5.424 70.564 5.424C70.0947 5.424 69.412 5.36 68.516 5.232C67.7267 5.08267 67.0333 5.008 66.436 5.008C65.86 5.008 65.4227 5.01867 65.124 5.04C65.06 5.744 65.028 7.42933 65.028 10.096C65.028 13.2747 65.124 16.496 65.316 19.76L65.38 20.688C65.38 21.5627 64.8787 22 63.876 22C63.0867 22 62.5533 21.8187 62.276 21.456C61.9987 21.072 61.86 20.496 61.86 19.728C61.86 18.2133 61.8173 16.3253 61.732 14.064C61.6467 12.1867 61.604 10.8533 61.604 10.064C61.604 9.53067 61.668 7.89867 61.796 5.168L58.052 5.2C56.8573 5.2 56.0253 5.09333 55.556 4.88C55.0867 4.64533 54.852 4.13333 54.852 3.344ZM73.8135 14.672C73.8135 13.3707 74.1015 12.2933 74.6775 11.44C75.2535 10.5653 76.0535 9.744 77.0775 8.976C77.3762 8.76267 77.8775 8.58133 78.5815 8.432C79.2855 8.26133 79.9042 8.176 80.4375 8.176C81.0775 8.176 81.7495 8.31467 82.4535 8.592C83.1788 8.848 83.7655 9.14667 84.2135 9.488C85.0028 10.064 85.5468 10.736 85.8455 11.504C86.1442 12.2507 86.2935 13.1467 86.2935 14.192C86.2935 14.64 86.0375 15.0773 85.5255 15.504C85.0348 15.9093 84.5015 16.112 83.9255 16.112L82.7095 16.08C82.0908 16.08 81.2055 16.1013 80.0535 16.144L79.3815 16.176C78.9122 16.2187 78.5602 16.24 78.3255 16.24C77.9842 16.24 77.5148 16.1973 76.9175 16.112C77.0028 17.1147 77.3762 17.904 78.0375 18.48C78.6988 19.0347 79.4135 19.312 80.1815 19.312C81.5255 19.312 82.4642 19.0453 82.9975 18.512C83.4455 18.192 83.7442 17.9893 83.8935 17.904C84.0428 17.8187 84.2775 17.776 84.5975 17.776C84.9388 17.776 85.2375 17.936 85.4935 18.256C85.7495 18.576 85.8775 18.896 85.8775 19.216C85.8775 19.5787 85.6535 19.952 85.2055 20.336C84.7788 20.6987 84.1922 21.0827 83.4455 21.488C83.0402 21.6587 82.4855 21.808 81.7815 21.936C81.0775 22.064 80.4908 22.128 80.0215 22.128C79.2748 22.128 78.4428 21.9147 77.5255 21.488C76.6082 21.04 75.9255 20.5493 75.4775 20.016C75.0295 19.4827 74.6348 18.7253 74.2935 17.744C73.9735 16.7627 73.8135 15.7387 73.8135 14.672ZM80.1815 13.808C81.6962 13.808 82.8055 13.7547 83.5095 13.648C83.4668 13.0293 83.2748 12.528 82.9335 12.144C82.5922 11.7387 82.1228 11.3973 81.5255 11.12C81.3335 11.0347 81.1628 10.9707 81.0135 10.928C80.8642 10.8853 80.6935 10.864 80.5015 10.864C79.5202 10.864 78.6882 11.1307 78.0055 11.664C77.3442 12.1973 76.9495 12.88 76.8215 13.712C77.8882 13.776 79.0082 13.808 80.1815 13.808ZM92.905 17.04C92.905 17.8507 93.0223 18.48 93.257 18.928C93.513 19.3547 93.833 19.568 94.217 19.568C94.4303 19.568 94.633 19.5573 94.825 19.536C95.017 19.4933 95.209 19.472 95.401 19.472C95.6143 19.472 95.7957 19.5787 95.945 19.792C96.1157 20.0053 96.201 20.24 96.201 20.496C96.201 21.008 95.9557 21.4133 95.465 21.712C94.9957 21.9893 94.3557 22.128 93.545 22.128C92.969 22.128 92.3823 21.9573 91.785 21.616C91.209 21.2533 90.729 20.6987 90.345 19.952C89.961 19.184 89.769 18.2347 89.769 17.104C89.769 14.672 89.8117 12.6133 89.897 10.928C90.0037 8.92267 90.057 6.39467 90.057 3.344C90.057 2.384 90.1103 1.712 90.217 1.328C90.345 1.02933 90.5477 0.805332 90.825 0.655998C91.1237 0.485332 91.433 0.4 91.753 0.4C92.073 0.4 92.3503 0.453333 92.585 0.559999C92.841 0.666666 93.0117 0.837332 93.097 1.072C93.1823 1.328 93.2357 1.584 93.257 1.84C93.2997 2.07467 93.321 2.416 93.321 2.864C93.321 3.73867 93.289 4.58133 93.225 5.392C93.1823 6.37333 93.161 7.088 93.161 7.536C92.9903 11.2907 92.905 14.4587 92.905 17.04ZM110.992 11.728C111.162 12.0267 111.301 12.464 111.408 13.04C111.514 13.5947 111.568 14.096 111.568 14.544C111.568 15.1413 111.472 15.888 111.28 16.784C111.088 17.6587 110.928 18.2453 110.8 18.544C109.648 20.9333 107.429 22.128 104.144 22.128C103.098 22.128 102.074 21.7867 101.072 21.104C100.069 20.4 99.3542 19.5787 98.9275 18.64L98.7035 18C98.6822 17.9147 98.5648 17.5947 98.3515 17.04C98.1595 16.464 98.0635 16.0267 98.0635 15.728C98.0635 14.8533 98.2768 13.84 98.7035 12.688C99.1302 11.536 99.6208 10.6187 100.176 9.936C100.538 9.44533 101.232 9.02933 102.256 8.688C103.28 8.32533 104.186 8.144 104.976 8.144C106.448 8.144 107.632 8.42133 108.528 8.976C109.445 9.53067 110.266 10.448 110.992 11.728ZM108.048 16.88C108.133 16.7307 108.208 16.464 108.272 16.08C108.336 15.696 108.368 15.248 108.368 14.736C108.368 14.1173 108.25 13.5093 108.016 12.912C107.802 12.3147 107.482 11.8027 107.056 11.376C107.034 11.3333 106.96 11.2693 106.832 11.184C106.704 11.0773 106.501 10.9813 106.224 10.896C105.946 10.7893 105.594 10.736 105.168 10.736C104.336 10.736 103.632 10.9813 103.056 11.472C102.48 11.9627 102.042 12.5707 101.744 13.296C101.466 14.0213 101.328 14.736 101.328 15.44C101.328 15.632 101.392 16.0267 101.52 16.624C101.648 17.2213 101.744 17.6053 101.808 17.776C101.978 18.0747 102.309 18.4267 102.8 18.832C103.29 19.216 103.845 19.408 104.464 19.408C105.424 19.408 106.17 19.184 106.704 18.736C107.258 18.288 107.706 17.6693 108.048 16.88Z" fill="white"/>
</svg>
